<svg viewBox="0 0 16 16" xmlns="http://www.w3.org/2000/svg" width="24" height="24" >
  <path d="m7.96874054 6.58973777c.76191745 0 1.3794146.61742232 1.3794146 1.37909641 0 .76182381-.61749715 1.37932096-1.3794146 1.37932096-.76165534 0-1.37915249-.61766561-1.37915249-1.37932096 0-.76167409.61749715-1.37909641 1.37915249-1.37909641zm-4.69945172 1.37909641c0-2.59553983 2.10400553-4.69947049 4.69945172-4.69947049 2.59578316 0 4.69963896 2.10393066 4.69963896 4.69947049 0 .17180669-.0091725.34129226-.0271057.50800735-.0356979.45812009.3005027.80779866.7557026.80779866.77255 0 .854878-.99609725.854878-1.31580601 0-3.47018554-2.8130032-6.28311386-6.28311386-6.28311386-3.47011063 0-6.28302022 2.81292832-6.28302022 6.28311386 0 3.46994212 2.81290959 6.28294532 6.28302022 6.28294532 1.84288853 0 3.50047356-.7929916 4.64982666-2.0566828l1.2916767 1.08464c-1.4590283 1.6309848-3.5804055 2.6582499-5.94150336 2.6582499-4.40102689 0-7.96874054-3.5680507-7.96874054-7.96915242 0-4.40112053 3.56771365-7.96883418 7.96874054-7.96883418 4.40128896 0 7.96900266 3.56771365 7.96900266 7.96883418 0 1.76907785-.8423922 3.20562412-2.5342525 3.20562412-.7446019 0-1.1971624-.3411613-1.4443522-.7219141-.8298689 1.3303323-2.30649339 2.2160787-3.99039796 2.2160787-2.59544619 0-4.69945172-2.1043426-4.69945172-4.69978872zm4.69945172-3.01382505c-1.66436146 0-3.01380628 1.34922022-3.01380628 3.01382505 0 1.66452993 1.34944482 3.01397482 3.01380628 3.01397482 1.66452993 0 3.01406846-1.34944489 3.01406846-3.01397482 0-1.66460483-1.34953853-3.01382505-3.01406846-3.01382505z" />
</svg>
